<?xml version="1.0" encoding="UTF-8" standalone="no"?><!DOCTYPE svg PUBLIC "-//W3C//DTD SVG 1.1//EN" "http://www.w3.org/Graphics/SVG/1.1/DTD/svg11.dtd"><svg width="100%" height="100%" viewBox="0 0 1792 1792" version="1.1" xmlns="http://www.w3.org/2000/svg" xmlns:xlink="http://www.w3.org/1999/xlink" xml:space="preserve" style="fill-rule:evenodd;clip-rule:evenodd;stroke-linejoin:round;stroke-miterlimit:1.41421;"><path d="M1664,896c0,167.333 -48.833,317.833 -146.5,451.5c-97.667,133.667 -223.833,226.167 -378.5,277.5c-18,3.333 -31.167,1 -39.5,-7c-8.333,-8 -12.5,-18 -12.5,-30l0,-211c0,-64.667 -17.333,-112 -52,-142c38,-4 72.167,-10 102.5,-18c30.333,-8 61.667,-21 94,-39c32.333,-18 59.333,-40.167 81,-66.5c21.667,-26.333 39.333,-61.333 53,-105c13.667,-43.667 20.5,-93.833 20.5,-150.5c0,-80.667 -26.333,-149.333 -79,-206c24.667,-60.667 22,-128.667 -8,-204c-18.667,-6 -45.667,-2.333 -81,11c-35.333,13.333 -66,28 -92,44l-38,24c-62,-17.333 -126,-26 -192,-26c-66,0 -130,8.667 -192,26c-10.667,-7.333 -24.833,-16.333 -42.5,-27c-17.667,-10.667 -45.5,-23.5 -83.5,-38.5c-38,-15 -66.667,-19.5 -86,-13.5c-29.333,75.333 -31.667,143.333 -7,204c-52.667,56.667 -79,125.333 -79,206c0,56.667 6.833,106.667 20.5,150c13.667,43.333 31.167,78.333 52.5,105c21.333,26.667 48.167,49 80.5,67c32.333,18 63.667,31 94,39c30.333,8 64.5,14 102.5,18c-26.667,24 -43,58.333 -49,103c-14,6.667 -29,11.667 -45,15c-16,3.333 -35,5 -57,5c-22,0 -43.833,-7.167 -65.5,-21.5c-21.667,-14.333 -40.167,-35.167 -55.5,-62.5c-12.667,-21.333 -28.833,-38.667 -48.5,-52c-19.667,-13.333 -36.167,-21.333 -49.5,-24l-20,-3c-14,0 -23.667,1.5 -29,4.5c-5.333,3 -7,6.833 -5,11.5c2,4.667 5,9.333 9,14c4,4.667 8.333,8.667 13,12l7,5c14.667,6.667 29.167,19.333 43.5,38c14.333,18.667 24.833,35.667 31.5,51l10,23c8.667,25.333 23.333,45.833 44,61.5c20.667,15.667 43,25.667 67,30c24,4.333 47.167,6.667 69.5,7c22.333,0.333 40.833,-0.833 55.5,-3.5l23,-4c0,25.333 0.167,55 0.5,89c0.333,34 0.5,52 0.5,54c0,12 -4.333,22 -13,30c-8.667,8 -22,10.333 -40,7c-154.667,-51.333 -280.833,-143.833 -378.5,-277.5c-97.667,-133.667 -146.5,-284.167 -146.5,-451.5c0,-139.333 34.333,-267.833 103,-385.5c68.667,-117.667 161.833,-210.833 279.5,-279.5c117.667,-68.667 246.167,-103 385.5,-103c139.333,0 267.833,34.333 385.5,103c117.667,68.667 210.833,161.833 279.5,279.5c68.667,117.667 103,246.167 103,385.5Z" style="fill:#19a974;fill-rule:nonzero;"/></svg>