<?xml version="1.0" encoding="UTF-8" standalone="no"?><!DOCTYPE svg PUBLIC "-//W3C//DTD SVG 1.1//EN" "http://www.w3.org/Graphics/SVG/1.1/DTD/svg11.dtd"><svg width="100%" height="100%" viewBox="0 0 1792 1516" version="1.1" xmlns="http://www.w3.org/2000/svg" xmlns:xlink="http://www.w3.org/1999/xlink" xml:space="preserve" style="fill-rule:evenodd;clip-rule:evenodd;stroke-linejoin:round;stroke-miterlimit:1.41421;"><path d="M597,283l0,1173c0,16.667 -4.167,30.833 -12.5,42.5c-8.333,11.667 -20.5,17.5 -36.5,17.5c-11.333,0 -22.333,-2.667 -33,-8l-465,-233c-14,-6.667 -25.833,-17.833 -35.5,-33.5c-9.667,-15.667 -14.5,-31.167 -14.5,-46.5l0,-1140c0,-13.333 3.333,-24.667 10,-34c6.667,-9.333 16.333,-14 29,-14c9.333,0 24,5 44,15l511,256c2,2 3,3.667 3,5Zm64,101l534,866l-534,-266l0,-600Zm1131,18l0,1054c0,16.667 -4.667,30.167 -14,40.5c-9.333,10.333 -22,15.5 -38,15.5c-16,0 -31.667,-4.333 -47,-13l-441,-220l540,-877Zm-3,-120c0,2 -85.5,141.833 -256.5,419.5c-171,277.667 -271.167,440.167 -300.5,487.5l-390,-634l324,-527c11.333,-18.667 28.667,-28 52,-28c9.333,0 18,2 26,6l541,270c2.667,1.333 4,3.333 4,6Z" style="fill:#19a974;fill-rule:nonzero;"/></svg>