<?xml version="1.0" encoding="UTF-8" standalone="no"?><!DOCTYPE svg PUBLIC "-//W3C//DTD SVG 1.1//EN" "http://www.w3.org/Graphics/SVG/1.1/DTD/svg11.dtd"><svg width="100%" height="100%" viewBox="0 0 1792 1792" version="1.1" xmlns="http://www.w3.org/2000/svg" xmlns:xlink="http://www.w3.org/1999/xlink" xml:space="preserve" style="fill-rule:evenodd;clip-rule:evenodd;stroke-linejoin:round;stroke-miterlimit:1.41421;"><path d="M1150,762c0,37.333 -13.167,69 -39.5,95c-26.333,26 -58.167,39 -95.5,39l-253,0l0,-269l253,0c37.333,0 69.167,13.167 95.5,39.5c26.333,26.333 39.5,58.167 39.5,95.5Zm179,0c0,-86.667 -30.5,-160.667 -91.5,-222c-61,-61.333 -135.167,-92 -222.5,-92l-433,0l0,896l180,0l0,-269l253,0c86.667,0 160.667,-30.5 222,-91.5c61.333,-61 92,-134.833 92,-221.5Zm463,134c0,121.333 -23.667,237.333 -71,348c-47.333,110.667 -111,206 -191,286c-80,80 -175.333,143.667 -286,191c-110.667,47.333 -226.667,71 -348,71c-121.333,0 -237.333,-23.667 -348,-71c-110.667,-47.333 -206,-111 -286,-191c-80,-80 -143.667,-175.333 -191,-286c-47.333,-110.667 -71,-226.667 -71,-348c0,-121.333 23.667,-237.333 71,-348c47.333,-110.667 111,-206 191,-286c80,-80 175.333,-143.667 286,-191c110.667,-47.333 226.667,-71 348,-71c121.333,0 237.333,23.667 348,71c110.667,47.333 206,111 286,191c80,80 143.667,175.333 191,286c47.333,110.667 71,226.667 71,348Z" style="fill:#19a974;fill-rule:nonzero;"/></svg>