<?xml version="1.0" encoding="UTF-8" standalone="no"?><!DOCTYPE svg PUBLIC "-//W3C//DTD SVG 1.1//EN" "http://www.w3.org/Graphics/SVG/1.1/DTD/svg11.dtd"><svg width="100%" height="100%" viewBox="0 0 1576 1280" version="1.1" xmlns="http://www.w3.org/2000/svg" xmlns:xlink="http://www.w3.org/1999/xlink" xml:space="preserve" style="fill-rule:evenodd;clip-rule:evenodd;stroke-linejoin:round;stroke-miterlimit:1.41421;"><path d="M1576,152c-44.667,65.333 -98.667,121 -162,167c0.667,9.333 1,23.333 1,42c0,86.667 -12.667,173.167 -38,259.5c-25.333,86.333 -63.833,169.167 -115.5,248.5c-51.667,79.333 -113.167,149.5 -184.5,210.5c-71.333,61 -157.333,109.667 -258,146c-100.667,36.333 -208.333,54.5 -323,54.5c-180.667,0 -346,-48.333 -496,-145c23.333,2.667 49.333,4 78,4c150,0 283.667,-46 401,-138c-70,-1.333 -132.667,-22.833 -188,-64.5c-55.333,-41.667 -93.333,-94.833 -114,-159.5c22,3.333 42.333,5 61,5c28.667,0 57,-3.667 85,-11c-74.667,-15.333 -136.5,-52.5 -185.5,-111.5c-49,-59 -73.5,-127.5 -73.5,-205.5l0,-4c45.333,25.333 94,39 146,41c-44,-29.333 -79,-67.667 -105,-115c-26,-47.333 -39,-98.667 -39,-154c0,-58.667 14.667,-113 44,-163c80.667,99.333 178.833,178.833 294.5,238.5c115.667,59.667 239.5,92.833 371.5,99.5c-5.333,-25.333 -8,-50 -8,-74c0,-89.333 31.5,-165.5 94.5,-228.5c63,-63 139.167,-94.5 228.5,-94.5c93.333,0 172,34 236,102c72.667,-14 141,-40 205,-78c-24.667,76.667 -72,136 -142,178c62,-6.667 124,-23.333 186,-50Z" style="fill:#19a974;fill-rule:nonzero;"/></svg>